<?xml version="1.0" standalone="no"?>
<!DOCTYPE svg PUBLIC "-//W3C//DTD SVG 20010904//EN"
 "http://www.w3.org/TR/2001/REC-SVG-20010904/DTD/svg10.dtd">
<svg version="1.0" xmlns="http://www.w3.org/2000/svg"
 width="1418.000000pt" height="1418.000000pt" viewBox="0 0 1418.000000 1418.000000"
 preserveAspectRatio="xMidYMid meet">
<metadata>
Created by potrace 1.11, written by Peter Selinger 2001-2013
</metadata>
<g transform="translate(0.000000,1418.000000) scale(0.100000,-0.100000)"
fill="#000000" stroke="none">
<path d="M3290 14154 c-19 -8 -116 -31 -215 -50 -766 -146 -1465 -524 -2015
-1090 -245 -252 -506 -618 -664 -932 -55 -109 -158 -362 -206 -503 -48 -144
-112 -385 -135 -511 -8 -48 -24 -108 -35 -134 -20 -45 -20 -87 -20 -3834 0
-3352 2 -3792 15 -3824 8 -19 24 -84 36 -143 105 -550 317 -1058 628 -1508
160 -233 436 -534 676 -738 240 -204 608 -432 890 -553 410 -174 689 -249
1212 -324 103 -14 7135 -14 7252 1 48 6 136 19 196 29 61 11 133 22 160 25 62
7 263 56 415 101 229 69 581 216 663 277 17 14 74 46 126 71 52 26 110 60 130
75 20 16 52 36 71 46 55 28 151 95 200 140 25 23 63 52 85 65 57 33 562 536
587 585 11 22 47 68 79 103 52 55 85 104 202 300 18 29 46 76 64 105 89 146
226 445 303 664 33 92 115 411 131 503 5 30 20 126 34 213 l25 159 0 3624 c0
3558 0 3627 -20 3747 -57 355 -142 679 -249 944 -51 129 -212 451 -284 569
-68 113 -219 324 -310 434 -158 191 -457 476 -662 632 -221 168 -611 386 -865
485 -217 84 -520 171 -710 204 -69 11 -148 30 -175 40 -49 19 -138 19 -3815
19 -3349 -1 -3769 -2 -3800 -16z m7111 -4624 c472 -36 847 -130 1184 -295 185
-90 307 -171 416 -272 180 -169 294 -374 344 -617 19 -94 39 -337 28 -346 -5
-4 -341 -21 -748 -39 -407 -17 -754 -33 -771 -35 -30 -4 -31 -2 -49 55 -60
201 -248 329 -563 384 -225 39 -605 39 -782 1 -199 -43 -300 -126 -300 -245 0
-109 92 -192 285 -258 39 -13 407 -96 819 -184 412 -88 800 -176 862 -195 224
-67 420 -156 576 -261 375 -251 538 -539 538 -948 0 -482 -215 -851 -670
-1147 -403 -263 -858 -387 -1645 -450 -208 -16 -839 -16 -1015 0 -525 49 -908
147 -1220 314 -349 185 -554 458 -631 838 -26 127 -38 430 -18 431 8 0 356 13
774 27 l761 27 16 -69 c54 -219 262 -351 652 -413 160 -26 737 -26 909 0 164
25 293 68 358 119 28 22 59 82 59 112 0 45 -37 112 -80 146 -58 46 -193 105
-315 139 -61 17 -444 103 -852 191 -408 88 -781 172 -829 185 -473 138 -781
378 -920 719 -58 142 -75 237 -81 446 -9 339 52 576 212 816 302 453 1066 766
2020 827 125 8 554 6 676 -3z m-6746 -122 c7 -31 545 -3631 545 -3648 0 -9 3
-10 9 -5 5 6 387 809 849 1786 463 977 853 1801 868 1832 l28 57 898 0 c494 0
898 -3 898 -7 0 -5 -546 -1052 -1214 -2328 l-1213 -2320 -1261 -3 -1262 -2 -5
22 c-15 68 -915 4615 -915 4625 0 10 177 13 885 13 l885 0 5 -22z"/>
</g>
</svg>
